<?xml version="1.0" encoding="utf-8"?>
<!-- Generator: Adobe Illustrator 22.1.0, SVG Export Plug-In . SVG Version: 6.00 Build 0)  -->
<svg version="1.1" id="eyeride_x5F_mark" xmlns="http://www.w3.org/2000/svg" xmlns:xlink="http://www.w3.org/1999/xlink" x="0px"
	 y="0px" viewBox="0 0 166.3463 218.4512" enable-background="new 0 0 166.3463 218.4512" xml:space="preserve">
<g>
	<g id="eyeride-mark-color-fill-6-copy_1_">
		<g>
			<linearGradient id="SVGID_1_" gradientUnits="userSpaceOnUse" x1="20.0315" y1="165.7529" x2="140.5166" y2="22.1643">
				<stop  offset="0" style="stop-color:#EA595B"/>
				<stop  offset="0.6703" style="stop-color:#F0981B"/>
			</linearGradient>
			<path fill-rule="evenodd" clip-rule="evenodd" fill="url(#SVGID_1_)" d="M84.6605,0.0397C84.1126,0.0397,83.6816,0,83.1338,0
				c-0.4692,0-1.0563,0.0397-1.4874,0.0397C36.5576,0.0397,0,37.1353,0,81.7859c0,75.3249,83.1731,136.6653,83.1731,136.6653
				s83.1732-61.3405,83.1732-136.7051C166.3463,37.2506,129.7886,0.0397,84.6605,0.0397z"/>
		</g>
	</g>
	<path fill="#FFFFFF" d="M83.1731,149.8153c-35.6571,0-64.6878-29.0558-64.6878-64.735c0-35.7273,29.0308-64.7791,64.6878-64.7791
		s64.6878,29.0518,64.6878,64.7791C147.8609,120.7595,118.8302,149.8153,83.1731,149.8153z"/>
</g>
<g>
	<g id="eyeride-mark-color-fill-6-copy">
		<g>
			<linearGradient id="SVGID_2_" gradientUnits="userSpaceOnUse" x1="20.0315" y1="165.7529" x2="140.5166" y2="22.1643">
				<stop  offset="0" style="stop-color:#FF5858"/>
				<stop  offset="0.6703" style="stop-color:#F09819"/>
			</linearGradient>
			<path fill-rule="evenodd" clip-rule="evenodd" fill="url(#SVGID_2_)" d="M84.6605,0.0397C84.1126,0.0397,83.6816,0,83.1338,0
				c-0.4692,0-1.0563,0.0397-1.4874,0.0397C36.5576,0.0397,0,37.1353,0,81.7859c0,75.3249,83.1731,136.6653,83.1731,136.6653
				s83.1732-61.3405,83.1732-136.7051C166.3463,37.2506,129.7886,0.0397,84.6605,0.0397z"/>
		</g>
	</g>
	<path fill="#FFFFFF" d="M83.1731,149.8153c-35.6571,0-64.6878-29.0558-64.6878-64.735c0-35.7273,29.0308-64.7791,64.6878-64.7791
		s64.6878,29.0518,64.6878,64.7791C147.8609,120.7595,118.8302,149.8153,83.1731,149.8153z"/>
</g>
<path fill="#1B223F" d="M83.1731,122.1096c-20.4016,0-37.0118-16.6246-37.0118-37.0388c0-20.4418,16.6102-37.064,37.0118-37.064
	s37.0118,16.6223,37.0118,37.064C120.1849,105.4851,103.5747,122.1096,83.1731,122.1096z"/>
<path fill="#FFFFFF" d="M83.1731,97.1106c-6.6364,0-12.0395-5.4077-12.0395-12.0482c0-6.6494,5.4031-12.0564,12.0395-12.0564
	c6.6364,0,12.0394,5.407,12.0394,12.0564C95.2126,91.7028,89.8095,97.1106,83.1731,97.1106z"/>
<g>
	<defs>
		<path id="SVGID_3_" d="M83.1731,149.8153c-35.6571,0-64.6878-29.0558-64.6878-64.735c0-35.7273,29.0308-64.7791,64.6878-64.7791
			s64.6878,29.0518,64.6878,64.7791C147.8609,120.7595,118.8302,149.8153,83.1731,149.8153z"/>
	</defs>
	<clipPath id="SVGID_4_">
		<use xlink:href="#SVGID_3_"  overflow="visible"/>
	</clipPath>
</g>
<path opacity="0.3" fill="#FFFFFF" d="M83.1731,44.1293V57.931c14.937,0,27.0983,12.17,27.0983,27.1365
	c0,14.9463-12.1613,27.1181-27.0983,27.1181c-7.6091,0-14.4864-3.1695-19.4142-8.2444l-9.8873,9.617
	c7.4349,7.6568,17.8213,12.429,29.3015,12.429c22.5366,0,40.8852-18.3643,40.8852-40.9149
	C124.0582,62.4912,105.7097,44.1293,83.1731,44.1293z"/>
<path opacity="0.3" fill="#FFFFFF" d="M83.1731,44.1293V57.931c14.937,0,27.0983,12.17,27.0983,27.1365
	c0,14.9463-12.1613,27.1181-27.0983,27.1181c-7.6091,0-14.4864-3.1695-19.4142-8.2444l-9.8873,9.617
	c7.4349,7.6568,17.8213,12.429,29.3015,12.429c22.5366,0,40.8852-18.3643,40.8852-40.9149
	C124.0582,62.4912,105.7097,44.1293,83.1731,44.1293z"/>
<path opacity="0.71" fill="#FFFFFF" d="M107.0056,65.942l6.9373-2.0722c-6.1305-8.8965-15.9692-15.042-27.2846-16.0944v6.8668
	C94.8689,55.5792,102.0816,59.8031,107.0056,65.942z"/>
</svg>
